<svg width="625" height="235" viewBox="0 0 625 235" xmlns="http://www.w3.org/2000/svg"><title>react-coach</title><g fill-rule="nonzero" fill="none"><g stroke="#E84855" fill="#E84855" stroke-linecap="round" stroke-linejoin="round"><path d="M74.107 126.023c-16.78 19.336-14.7 48.72 4.624 65.486 19.327 16.77 48.71 14.686 65.49-4.648 16.768-19.324 14.673-48.692-4.65-65.464-19.325-16.768-48.692-14.702-65.463 4.625zm64.565 56.024c-14.128 16.28-38.858 18.036-55.128 3.918-16.267-14.117-18.015-38.848-3.888-55.128 14.114-16.266 38.833-18.01 55.102-3.895 16.27 14.122 18.028 38.84 3.914 55.105z"/><path d="M58.583 112.552h.002c-22.198 25.584-21.504 63.347.268 88.095-3.49.733-6.777 2.57-9.292 5.468-6.13 7.062-5.37 17.787 1.69 23.91 7.057 6.126 17.79 5.372 23.918-1.69 2.98-3.434 4.325-7.734 4.114-11.95 26.676 13.29 60.036 7.477 80.458-16.056 23.16-26.694 21.38-66.67-3.293-91.26-22.1-29.688 17.338-86.623 17.74-87.198l1.895-2.712-20.798-18.047-96.7 111.44zm52.963-49.823l9.974 8.653-3.543 4.085L108 66.812l3.546-4.083zM69.62 223.52c-3.473 4.004-9.557 4.43-13.557.957-4.003-3.474-4.433-9.55-.96-13.553 3.475-4.002 9.552-4.436 13.555-.962 4 3.47 4.436 9.555.962 13.558zm84.574-28.003c-21.55 24.833-59.282 27.505-84.113 5.96-24.827-21.544-27.496-59.276-5.948-84.11 21.534-24.816 59.258-27.482 84.087-5.938.923.802 1.814 1.63 2.677 2.475.024.03.045.063.07.095l.014-.01c22.236 21.87 23.92 57.666 3.214 81.527zM166.32 20.412c-6.94 10.628-29.978 48.996-22.46 78.786-18.29-11.102-40.546-12.553-59.768-4.835l19.095-22.007 15.523 13.472 13.167-15.175-15.524-13.47 39.664-45.71 10.302 8.94z"/><path d="M86.113 135.986l5.06 5.318c.625-.586 15.58-14.3 33.47-2.05l4.148-6.067c-18.296-12.527-35.914-3.646-42.677 2.8zM8.564 117.028l22.612 8.322-2.536 6.89-22.61-8.322zM31.974 81.364l6.418-3.565 11.695 21.053-6.418 3.565zM.745 166.23l22.563-8.443 2.577 6.886-22.564 8.442z"/></g><g fill="#58595B"><path d="M270.083 93.846c.347.61.39 1.108.13 1.5-.26.39-.74.586-1.434.586h-20.73c-.697 0-1.392-.196-2.087-.587-.697-.39-1.218-.89-1.564-1.5l-13.82-24.77c-.176-.348-.48-.522-.914-.522H214.15c-.435 0-.65.218-.65.652v24.25c0 1.652-.828 2.477-2.478 2.477H193.03c-1.653 0-2.478-.825-2.478-2.477V7.145c0-1.65.825-2.48 2.477-2.48h58.93c2.087 0 4.063.415 5.933 1.24 1.868.827 3.476 1.913 4.824 3.26 1.347 1.348 2.432 2.955 3.26 4.823.824 1.87 1.238 3.846 1.238 5.932v34.29c0 3.304-.978 6.28-2.934 8.93-1.955 2.653-4.454 4.457-7.496 5.412l-.39.13c-.61.175-.74.436-.393.782l.13.26 13.953 24.122zm-25.945-67.928h-31.42v22.165h31.42V25.918zM304.633 26.57v14.21c0 .35.216.522.652.522h44.068c.694 0 1.28.24 1.76.717.478.478.718 1.064.718 1.76v13.037c0 1.652-.826 2.477-2.477 2.477h-44.068c-.436 0-.652.218-.652.652v14.08c0 .437.216.653.652.653h50.587c.695 0 1.282.24 1.76.716.478.48.718 1.065.718 1.76v16.297c0 .697-.24 1.283-.717 1.76-.48.48-1.065.717-1.76.717H296.94c-2.085 0-4.063-.39-5.93-1.173-1.87-.782-3.5-1.868-4.89-3.26-1.392-1.39-2.477-3.02-3.26-4.89-.782-1.867-1.173-3.845-1.173-5.93V19.92c0-2.086.39-4.062 1.173-5.932.783-1.868 1.868-3.476 3.26-4.824 1.39-1.346 3.02-2.432 4.89-3.26 1.867-.824 3.845-1.238 5.93-1.238h58.932c.695 0 1.282.24 1.76.717.478.48.718 1.065.718 1.76V23.57c0 .698-.24 1.262-.717 1.696-.48.436-1.065.652-1.76.652h-50.588c-.436 0-.652.218-.652.652zM434.23 4.666c2.086 0 4.062.414 5.932 1.24 1.868.826 3.476 1.912 4.824 3.258 1.347 1.35 2.433 2.956 3.26 4.824.825 1.87 1.238 3.846 1.238 5.932v73.534c0 .697-.24 1.283-.717 1.76-.48.48-1.065.717-1.76.717h-18.123c-.697 0-1.284-.237-1.76-.716-.48-.477-.718-1.063-.718-1.76V70.116c0-.695-.218-1.282-.65-1.76-.438-.477-1.002-.717-1.696-.717h-25.815c-.696 0-1.283.24-1.76.716-.48.48-.717 1.065-.717 1.76v23.338c0 1.652-.827 2.477-2.478 2.477h-17.992c-1.652 0-2.478-.824-2.478-2.476V19.92c0-2.086.392-4.062 1.174-5.932.782-1.868 1.868-3.476 3.26-4.824 1.39-1.346 3.02-2.432 4.89-3.26 1.867-.824 3.845-1.238 5.932-1.238h46.154zm-7.823 43.417V25.136h-30.64v22.947h30.64zM487.56 27.482c-.48.436-.718 1-.718 1.695V71.42c0 .697.238 1.26.717 1.695.476.436 1.062.652 1.76.652h41.85c.696 0 1.283.24 1.762.717.477.48.717 1.065.717 1.76v17.21c0 .697-.24 1.283-.718 1.76-.48.48-1.065.717-1.76.717H479.15c-2.087 0-4.064-.39-5.933-1.172-1.87-.782-3.5-1.868-4.89-3.26-1.39-1.39-2.477-3.02-3.26-4.89-.78-1.867-1.173-3.845-1.173-5.93V19.92c0-2.086.392-4.062 1.174-5.932.782-1.868 1.868-3.476 3.26-4.824 1.39-1.346 3.02-2.432 4.89-3.26 1.867-.824 3.845-1.238 5.932-1.238h52.021c.696 0 1.283.24 1.762.717.477.48.717 1.065.717 1.76v17.21c0 .697-.24 1.283-.718 1.76-.48.48-1.065.717-1.76.717h-41.853c-.698 0-1.285.22-1.76.652zM624.782 24.354c0 .697-.24 1.283-.717 1.76-.48.48-1.065.717-1.76.717H600.4c-.696 0-1.283.22-1.76.653-.48.436-.717 1-.717 1.695v64.277c0 .697-.218 1.283-.652 1.76-.435.48-1 .717-1.693.717h-18.123c-.696 0-1.283-.238-1.76-.717-.48-.477-.718-1.063-.718-1.76V29.178c0-.695-.218-1.26-.65-1.695-.438-.434-1-.652-1.696-.652h-22.033c-.696 0-1.283-.237-1.76-.716-.48-.477-.718-1.063-.718-1.76V7.144c0-1.65.824-2.478 2.477-2.478h71.711c.694 0 1.28.24 1.76.717.477.48.717 1.065.717 1.76v17.21z"/><g><path d="M214.216 162.165c-.48.436-.717 1-.717 1.695v42.242c0 .697.237 1.262.716 1.695.477.436 1.063.652 1.76.652h48.762c.695 0 1.28.24 1.76.716.477.48.717 1.064.717 1.76v17.21c0 .696-.24 1.284-.717 1.76-.48.48-1.065.718-1.76.718h-58.93c-2.086 0-4.064-.393-5.932-1.174-1.87-.783-3.5-1.867-4.89-3.26-1.39-1.39-2.476-3.02-3.26-4.89-.78-1.868-1.172-3.845-1.172-5.93v-60.761c0-2.086.39-4.062 1.173-5.932s1.868-3.477 3.26-4.825c1.39-1.346 3.02-2.432 4.89-3.258 1.867-.826 3.845-1.24 5.93-1.24h58.932c.695 0 1.28.242 1.76.72.477.478.717 1.063.717 1.76v17.21c0 .695-.24 1.282-.717 1.76-.48.478-1.065.716-1.76.716h-48.762c-.696.002-1.283.22-1.76.655zM343.096 139.347c2.086 0 4.062.414 5.932 1.24 1.87.826 3.477 1.912 4.824 3.258 1.346 1.35 2.432 2.956 3.26 4.825.824 1.87 1.238 3.846 1.238 5.932v60.758c0 2.086-.414 4.062-1.238 5.932-.828 1.87-1.914 3.5-3.26 4.89-1.348 1.392-2.955 2.476-4.824 3.26-1.87.78-3.846 1.173-5.932 1.173H296.94c-2.085 0-4.063-.393-5.93-1.174-1.87-.782-3.5-1.866-4.89-3.26-1.392-1.388-2.477-3.02-3.26-4.888-.782-1.87-1.173-3.846-1.173-5.932v-60.758c0-2.086.39-4.062 1.173-5.932s1.868-3.477 3.26-4.825c1.39-1.346 3.02-2.432 4.89-3.258 1.867-.826 3.845-1.24 5.93-1.24h46.156zm-7.823 22.165h-30.64v46.938h30.64v-46.938zM434.23 139.347c2.086 0 4.062.414 5.932 1.24 1.868.826 3.476 1.912 4.824 3.258 1.347 1.35 2.433 2.956 3.26 4.825.825 1.87 1.238 3.846 1.238 5.932v73.533c0 .697-.24 1.285-.717 1.762-.48.48-1.065.717-1.76.717h-18.123c-.697 0-1.284-.238-1.76-.717-.48-.477-.718-1.064-.718-1.762v-23.338c0-.693-.218-1.28-.65-1.76-.438-.477-1.002-.717-1.696-.717h-25.815c-.696 0-1.283.24-1.76.717-.48.48-.717 1.066-.717 1.76v23.338c0 1.652-.827 2.48-2.478 2.48h-17.992c-1.652 0-2.478-.827-2.478-2.48v-73.533c0-2.086.392-4.062 1.174-5.932.782-1.87 1.868-3.477 3.26-4.825 1.39-1.346 3.02-2.432 4.89-3.258 1.867-.826 3.845-1.24 5.932-1.24h46.154zm-7.823 43.417v-22.947h-30.64v22.947h30.64zM487.462 162.165c-.48.436-.717 1-.717 1.695v42.242c0 .697.238 1.262.717 1.695.477.436 1.063.652 1.76.652h41.852c.695 0 1.282.24 1.76.716.478.48.718 1.064.718 1.76v17.21c0 .696-.24 1.284-.717 1.76-.48.48-1.065.718-1.76.718h-52.022c-2.087 0-4.064-.393-5.933-1.174-1.87-.783-3.5-1.867-4.89-3.26-1.39-1.39-2.477-3.02-3.26-4.89-.78-1.868-1.173-3.845-1.173-5.93v-60.761c0-2.086.392-4.062 1.174-5.932.783-1.87 1.87-3.477 3.26-4.825 1.39-1.346 3.02-2.432 4.89-3.258 1.868-.826 3.846-1.24 5.933-1.24h52.021c.695 0 1.282.242 1.76.72s.718 1.063.718 1.76v17.21c0 .695-.24 1.282-.717 1.76-.48.478-1.065.716-1.76.716H489.22c-.697.002-1.284.22-1.76.655zM622.305 139.347c.694 0 1.28.242 1.76.72.477.478.718 1.063.718 1.76v86.31c0 .696-.24 1.284-.718 1.76-.48.48-1.065.718-1.76.718h-18.123c-.696 0-1.283-.238-1.76-.717-.48-.477-.717-1.064-.717-1.762V198.02c0-.694-.22-1.26-.652-1.696-.436-.434-1-.65-1.695-.65h-25.814c-.697 0-1.283.217-1.76.65-.48.438-.718 1.002-.718 1.695v30.116c0 1.652-.827 2.48-2.478 2.48h-17.992c-1.65 0-2.477-.827-2.477-2.48v-86.31c0-1.65.824-2.48 2.476-2.48h17.992c1.65 0 2.478.83 2.478 2.48v29.204c0 1.652.825 2.48 2.478 2.48h25.814c.695 0 1.26-.24 1.695-.72.434-.477.652-1.062.652-1.76v-29.204c0-.695.238-1.28.717-1.76.477-.477 1.063-.72 1.76-.72h18.123z"/></g></g><path d="M624.782 123.258c0 .454-.155.84-.468 1.146-.312.315-.696.472-1.15.472H192.17c-.454 0-.838-.156-1.15-.472-.312-.308-.468-.692-.468-1.146V112.02c0-1.077.54-1.617 1.618-1.617h430.994c.454 0 .838.156 1.15.467.312.31.468.697.468 1.15v11.238z" fill="#E84855"/></g></svg>