<?xml version="1.0" encoding="UTF-8"?>
<svg width="307px" height="36px" viewBox="0 0 307 36" version="1.1" xmlns="http://www.w3.org/2000/svg" xmlns:xlink="http://www.w3.org/1999/xlink">
    <!-- Generator: Sketch 46.1 (44463) - http://www.bohemiancoding.com/sketch -->
    <title>reactcoach</title>
    <desc>Created with Sketch.</desc>
    <defs></defs>
    <g id="Page-1" stroke="none" stroke-width="1" fill="none" fill-rule="evenodd">
        <g id="if_icon-38-whistle_316199" transform="translate(227.935044, 24.991928) rotate(44.000000) translate(-227.935044, -24.991928) translate(207.435044, 13.991928)" fill-rule="nonzero" fill="#3185FC">
            <path d="M6.15987879,8.44686899 C7.37194237,3.92792196 11.418719,0.607372985 16.2241915,0.607372985 L17.9633219,0.607372985 L17.9633219,4.16292854 L23.1807132,4.16292854 L23.1807132,0.607372985 L40.5720176,0.607372985 L40.5720176,5.94070632 L26.4294532,9.03860143 L26.4294532,9.03860143 C26.5798357,9.75947307 26.6589741,10.5073092 26.6589741,11.2740397 C26.6589741,17.165077 21.9871628,21.9407063 16.2241915,21.9407063 C11.418719,21.9407063 7.37194237,18.6201573 6.15987879,14.1012103 C5.57471969,14.5581661 4.84350783,14.8295952 4.05027844,14.8295952 C2.12928801,14.8295952 0.572017572,13.2377188 0.572017572,11.2740397 C0.572017572,9.31036054 2.12928801,7.7184841 4.05027844,7.7184841 C4.84350783,7.7184841 5.57471969,7.98991325 6.15987879,8.44686899 L6.15987879,8.44686899 L6.15987879,8.44686899 Z M24.9198437,2.38515076 L38.8328871,2.38515076 L38.8328871,4.51850579 L24.2050751,7.73911094 C24.6649223,8.82248605 24.9198437,10.0178313 24.9198437,11.2740397 C24.9198437,16.1832373 21.0266675,20.1629285 16.2241915,20.1629285 C11.4217155,20.1629285 7.52853931,16.1832373 7.52853931,11.2740397 C7.52853931,6.97814419 10.5097344,3.39401743 14.4726757,2.56554027 C15.0384438,2.44726312 15.6242219,2.38515076 16.2241915,2.38515076 L16.2241915,5.94070632 L24.9198437,5.94070632 L24.9198437,2.38515076 L24.9198437,2.38515076 L24.9198437,2.38515076 Z M4.05027844,9.49626187 C3.08978322,9.49626187 2.31114801,10.2853549 2.31114801,11.2740397 C2.31114801,12.2558791 3.08308682,13.0518174 4.05027844,13.0518174 C5.01077366,13.0518174 5.78940888,12.2627245 5.78940888,11.2740397 C5.78940888,10.2922002 5.01747006,9.49626187 4.05027844,9.49626187 L4.05027844,9.49626187 Z" id="whistle"></path>
        </g>
        <path d="M14.436,1.4 C16.5480106,1.4 18.4359917,1.62399776 20.1,2.072 C21.7640083,2.52000224 23.1799942,3.19199552 24.348,4.088 C25.5160058,4.98400448 26.4119969,6.12799304 27.036,7.52 C27.6600031,8.91200696 27.972,10.5359907 27.972,12.392 C27.972,14.792012 27.476005,16.7839921 26.484,18.368 C25.491995,19.9520079 24.0840091,21.1599958 22.26,21.992 L28.212,33.416 C28.3080005,33.608001 28.356,33.7839992 28.356,33.944 C28.356,34.2320014 28.252001,34.479999 28.044,34.688 C27.835999,34.896001 27.5880014,35 27.3,35 L20.772,35 C20.1319968,35 19.6760014,34.8560014 19.404,34.568 C19.1319986,34.2799986 18.9160008,33.9920014 18.756,33.704 L13.428,23.432 L9.012,23.432 L9.012,33.704 C9.012,34.0560018 8.88400128,34.3599987 8.628,34.616 C8.37199872,34.8720013 8.06800176,35 7.716,35 L1.428,35 C1.07599824,35 0.77200128,34.8720013 0.516,34.616 C0.25999872,34.3599987 0.132,34.0560018 0.132,33.704 L0.132,2.696 C0.132,2.34399824 0.25999872,2.04000128 0.516,1.784 C0.77200128,1.52799872 1.07599824,1.4 1.428,1.4 L14.436,1.4 Z M9.012,15.944 L14.436,15.944 C15.7800067,15.944 16.8919956,15.6880026 17.772,15.176 C18.6520044,14.6639974 19.092,13.7360067 19.092,12.392 C19.092,11.0479933 18.6520044,10.1200026 17.772,9.608 C16.8919956,9.09599744 15.7800067,8.84 14.436,8.84 L9.012,8.84 L9.012,15.944 Z M39.924,25.256 C39.924,25.9920037 40.0599986,26.5999976 40.332,27.08 C40.6040014,27.5600024 40.9479979,27.9439986 41.364,28.232 C41.7800021,28.5200014 42.2439974,28.7199994 42.756,28.832 C43.2680026,28.9440006 43.7639976,29 44.244,29 C45.2040048,29 45.9639972,28.904001 46.524,28.712 C47.0840028,28.519999 47.5559981,28.2480018 47.94,27.896 C48.2920018,27.6079986 48.5479992,27.4240004 48.708,27.344 C48.8680008,27.2639996 49.1399981,27.224 49.524,27.224 L55.764,27.224 C56.4680035,27.224 56.82,27.5759965 56.82,28.28 C56.82,28.6640019 56.5800024,29.2479961 56.1,30.032 C55.6199976,30.8160039 54.876005,31.6159959 53.868,32.432 C52.859995,33.2480041 51.556008,33.959997 49.956,34.568 C48.355992,35.176003 46.452011,35.48 44.244,35.48 C42.1639896,35.48 40.3160081,35.184003 38.7,34.592 C37.0839919,33.999997 35.7240055,33.1440056 34.62,32.024 C33.5159945,30.9039944 32.6840028,29.544008 32.124,27.944 C31.5639972,26.343992 31.284,24.5360101 31.284,22.52 C31.284,20.6639907 31.5639972,18.9440079 32.124,17.36 C32.6840028,15.7759921 33.5159945,14.4080058 34.62,13.256 C35.7240055,12.1039942 37.0839919,11.2000033 38.7,10.544 C40.3160081,9.88799672 42.1639896,9.56 44.244,9.56 C46.5800117,9.56 48.5719918,9.95199608 50.22,10.736 C51.8680082,11.5200039 53.2119948,12.5359938 54.252,13.784 C55.2920052,15.0320062 56.0439977,16.4319922 56.508,17.984 C56.9720023,19.5360078 57.204,21.0799923 57.204,22.616 L57.204,23.96 C57.204,24.3120018 57.0760013,24.6159987 56.82,24.872 C56.5639987,25.1280013 56.2600018,25.256 55.908,25.256 L39.924,25.256 Z M44.244,16.04 C42.8999933,16.04 41.8760035,16.439996 41.172,17.24 C40.4679965,18.040004 40.0520006,18.935995 39.924,19.928 L48.564,19.928 C48.4359994,18.935995 48.0200035,18.040004 47.316,17.24 C46.6119965,16.439996 45.5880067,16.04 44.244,16.04 Z M59.94,27.896 C59.94,25.7839894 60.7479919,24.0400069 62.364,22.664 C63.9800081,21.2879931 66.6119818,20.2800032 70.26,19.64 L75.876,18.68 C75.876,17.9119962 75.6680021,17.2800025 75.252,16.784 C74.8359979,16.2879975 74.1160051,16.04 73.092,16.04 C72.3559963,16.04 71.788002,16.143999 71.388,16.352 C70.987998,16.560001 70.692001,16.7439992 70.5,16.904 C70.2119986,17.1600013 69.9400013,17.3199997 69.684,17.384 C69.4279987,17.4480003 69.1240018,17.48 68.772,17.48 L62.676,17.48 C62.3559984,17.48 62.092001,17.384001 61.884,17.192 C61.675999,16.999999 61.5879998,16.7440016 61.62,16.424 C61.6840003,15.6879963 62.0039971,14.920004 62.58,14.12 C63.1560029,13.319996 63.947995,12.5840034 64.956,11.912 C65.964005,11.2399966 67.163993,10.6800022 68.556,10.232 C69.948007,9.78399776 71.4599918,9.56 73.092,9.56 C75.0440098,9.56 76.7399928,9.7999976 78.18,10.28 C79.6200072,10.7600024 80.8119953,11.4239958 81.756,12.272 C82.7000047,13.1200042 83.3959978,14.1279942 83.844,15.296 C84.2920022,16.4640058 84.516,17.751993 84.516,19.16 L84.516,33.704 C84.516,34.0560018 84.3880013,34.3599987 84.132,34.616 C83.8759987,34.8720013 83.5720018,35 83.22,35 L77.172,35 C76.8199982,35 76.5160013,34.8720013 76.26,34.616 C76.0039987,34.3599987 75.876,34.0560018 75.876,33.704 L75.876,32.36 C75.1079962,33.3200048 74.1560057,34.0799972 73.02,34.64 C71.8839943,35.2000028 70.3880093,35.48 68.532,35.48 C67.1559931,35.48 65.9320054,35.2880019 64.86,34.904 C63.7879946,34.5199981 62.8920036,33.9920034 62.172,33.32 C61.4519964,32.6479966 60.9000019,31.8480046 60.516,30.92 C60.1319981,29.9919954 59.94,28.9840054 59.94,27.896 Z M70.884,29 C71.5880035,29 72.243997,28.8800012 72.852,28.64 C73.460003,28.3999988 73.9879978,28.0720021 74.436,27.656 C74.8840022,27.2399979 75.2359987,26.7520028 75.492,26.192 C75.7480013,25.6319972 75.876,25.0320032 75.876,24.392 L71.46,25.064 C70.5959957,25.2240008 69.9000026,25.4959981 69.372,25.88 C68.8439974,26.2640019 68.58,26.759997 68.58,27.368 C68.58,27.976003 68.779998,28.3999988 69.18,28.64 C69.580002,28.8800012 70.1479963,29 70.884,29 Z M97.476,20.84 C97.4119997,21.3200024 97.38,21.8799968 97.38,22.52 C97.38,23.1600032 97.4119997,23.7199976 97.476,24.2 C97.5720005,25.3520058 98.0039962,26.2799965 98.772,26.984 C99.5400038,27.6880035 100.563994,28.04 101.844,28.04 C102.900005,28.04 103.707997,27.8880015 104.268,27.584 C104.828003,27.2799985 105.283998,26.8560027 105.636,26.312 C105.796001,26.0559987 105.979999,25.832001 106.188,25.64 C106.396001,25.447999 106.675998,25.352 107.028,25.352 L113.316,25.352 C113.668002,25.352 113.979999,25.4799987 114.252,25.736 C114.524001,25.9920013 114.644,26.2959982 114.612,26.648 C114.58,27.1600026 114.372002,27.911995 113.988,28.904 C113.603998,29.896005 112.932005,30.8799951 111.972,31.856 C111.011995,32.8320049 109.716008,33.6799964 108.084,34.4 C106.451992,35.1200036 104.372013,35.48 101.844,35.48 C100.051991,35.48 98.3800078,35.2240026 96.828,34.712 C95.2759922,34.1999974 93.9160058,33.4640048 92.748,32.504 C91.5799942,31.5439952 90.6520034,30.3840068 89.964,29.024 C89.2759966,27.6639932 88.9000003,26.1360085 88.836,24.44 C88.8039998,23.9599976 88.788,23.320004 88.788,22.52 C88.788,21.719996 88.8039998,21.0800024 88.836,20.6 C88.9000003,18.9039915 89.2759966,17.3760068 89.964,16.016 C90.6520034,14.6559932 91.5799942,13.4960048 92.748,12.536 C93.9160058,11.5759952 95.2759922,10.8400026 96.828,10.328 C98.3800078,9.81599744 100.051991,9.56 101.844,9.56 C104.372013,9.56 106.451992,9.9199964 108.084,10.64 C109.716008,11.3600036 111.011995,12.2079951 111.972,13.184 C112.932005,14.1600049 113.603998,15.143995 113.988,16.136 C114.372002,17.128005 114.58,17.8799974 114.612,18.392 C114.644,18.7440018 114.524001,19.0479987 114.252,19.304 C113.979999,19.5600013 113.668002,19.688 113.316,19.688 L107.028,19.688 C106.675998,19.688 106.396001,19.592001 106.188,19.4 C105.979999,19.207999 105.796001,18.9840013 105.636,18.728 C105.283998,18.1839973 104.828003,17.7600015 104.268,17.456 C103.707997,17.1519985 102.900005,17 101.844,17 C100.563994,17 99.5400038,17.3519965 98.772,18.056 C98.0039962,18.7600035 97.5720005,19.6879942 97.476,20.84 Z M130.212,25.256 C130.212,25.9920037 130.371998,26.559998 130.692,26.96 C131.012002,27.360002 131.539996,27.56 132.276,27.56 L136.116,27.56 C136.468002,27.56 136.771999,27.6879987 137.028,27.944 C137.284001,28.2000013 137.412,28.5039982 137.412,28.856 L137.412,33.704 C137.412,34.0560018 137.284001,34.3599987 137.028,34.616 C136.771999,34.8720013 136.468002,35 136.116,35 L131.556,35 C130.051992,35 128.684006,34.7840022 127.452,34.352 C126.219994,33.9199978 125.172004,33.2960041 124.308,32.48 C123.443996,31.6639959 122.772002,30.6720058 122.292,29.504 C121.811998,28.3359942 121.572,27.0160074 121.572,25.544 L121.572,17.48 L118.02,17.48 C117.667998,17.48 117.364001,17.3520013 117.108,17.096 C116.851999,16.8399987 116.724,16.5360018 116.724,16.184 L116.724,11.336 C116.724,10.9839982 116.851999,10.6800013 117.108,10.424 C117.364001,10.1679987 117.667998,10.04 118.02,10.04 L121.572,10.04 L121.572,2.216 C121.572,1.86399824 121.699999,1.56000128 121.956,1.304 C122.212001,1.04799872 122.515998,0.92 122.868,0.92 L128.916,0.92 C129.268002,0.92 129.571999,1.04799872 129.828,1.304 C130.084001,1.56000128 130.212,1.86399824 130.212,2.216 L130.212,10.04 L135.636,10.04 C135.988002,10.04 136.291999,10.1679987 136.548,10.424 C136.804001,10.6800013 136.932,10.9839982 136.932,11.336 L136.932,16.184 C136.932,16.5360018 136.804001,16.8399987 136.548,17.096 C136.291999,17.3520013 135.988002,17.48 135.636,17.48 L130.212,17.48 L130.212,25.256 Z M159.972,14.168 C159.94,14.5840021 159.916,15.1599963 159.9,15.896 C159.884,16.6320037 159.876,17.3919961 159.876,18.176 C159.876,18.9600039 159.884,19.7279962 159.9,20.48 C159.916,21.2320038 159.94,21.8159979 159.972,22.232 C160.036,22.9680037 160.179999,23.6719966 160.404,24.344 C160.628001,25.0160034 160.979998,25.6079974 161.46,26.12 C161.940002,26.6320026 162.547996,27.0399985 163.284,27.344 C164.020004,27.6480015 164.931995,27.8 166.02,27.8 C167.108005,27.8 168.003996,27.6720013 168.708,27.416 C169.412004,27.1599987 169.987998,26.8480018 170.436,26.48 C170.884002,26.1119982 171.227999,25.7040022 171.468,25.256 C171.708001,24.8079978 171.891999,24.3920019 172.02,24.008 C172.180001,23.4959974 172.355999,23.136001 172.548,22.928 C172.740001,22.719999 173.107997,22.616 173.652,22.616 L179.94,22.616 C180.228001,22.616 180.475999,22.719999 180.684,22.928 C180.892001,23.136001 180.996,23.3839986 180.996,23.672 C180.964,25.3040082 180.564004,26.8399928 179.796,28.28 C179.027996,29.7200072 177.972007,30.9679947 176.628,32.024 C175.283993,33.0800053 173.708009,33.9199969 171.9,34.544 C170.091991,35.1680031 168.132011,35.48 166.02,35.48 C163.715988,35.48 161.660009,35.1360034 159.852,34.448 C158.043991,33.7599966 156.500006,32.8240059 155.22,31.64 C153.939994,30.4559941 152.956003,29.0720079 152.268,27.488 C151.579997,25.9039921 151.188,24.2320088 151.092,22.472 C151.028,21.1599934 150.996,19.7520075 150.996,18.248 C150.996,16.7439925 151.028,15.3040069 151.092,13.928 C151.156,12.1679912 151.539996,10.4960079 152.244,8.912 C152.948004,7.32799208 153.931994,5.94400592 155.196,4.76 C156.460006,3.57599408 158.003991,2.64000344 159.828,1.952 C161.652009,1.26399656 163.715988,0.92 166.02,0.92 C168.132011,0.92 170.091991,1.23199688 171.9,1.856 C173.708009,2.48000312 175.283993,3.31999472 176.628,4.376 C177.972007,5.43200528 179.027996,6.6799928 179.796,8.12 C180.564004,9.5600072 180.964,11.0959918 180.996,12.728 C180.996,13.0160014 180.892001,13.263999 180.684,13.472 C180.475999,13.680001 180.228001,13.784 179.94,13.784 L173.652,13.784 C173.107997,13.784 172.740001,13.680001 172.548,13.472 C172.355999,13.263999 172.180001,12.9040026 172.02,12.392 C171.891999,12.0079981 171.708001,11.5920022 171.468,11.144 C171.227999,10.6959978 170.884002,10.2880018 170.436,9.92 C169.987998,9.55199816 169.412004,9.24000128 168.708,8.984 C168.003996,8.72799872 167.108005,8.6 166.02,8.6 C164.931995,8.6 164.020004,8.75199848 163.284,9.056 C162.547996,9.36000152 161.940002,9.76799744 161.46,10.28 C160.979998,10.7920026 160.628001,11.3839966 160.404,12.056 C160.179999,12.7280034 160.036,13.4319963 159.972,14.168 Z M210.42,20.696 C210.452,21.1760024 210.468,21.7919962 210.468,22.544 C210.468,23.2960038 210.452,23.9119976 210.42,24.392 C210.356,25.9280077 210.004003,27.3679933 209.364,28.712 C208.723997,30.0560067 207.844006,31.231995 206.724,32.24 C205.603994,33.248005 204.252008,34.0399971 202.668,34.616 C201.083992,35.1920029 199.31601,35.48 197.364,35.48 C195.41199,35.48 193.644008,35.1920029 192.06,34.616 C190.475992,34.0399971 189.124006,33.248005 188.004,32.24 C186.883994,31.231995 186.004003,30.0560067 185.364,28.712 C184.723997,27.3679933 184.372,25.9280077 184.308,24.392 C184.276,23.9119976 184.26,23.2960038 184.26,22.544 C184.26,21.7919962 184.276,21.1760024 184.308,20.696 C184.34,19.1599923 184.675997,17.7200067 185.316,16.376 C185.956003,15.0319933 186.843994,13.856005 187.98,12.848 C189.116006,11.839995 190.475992,11.040003 192.06,10.448 C193.644008,9.85599704 195.41199,9.56 197.364,9.56 C199.31601,9.56 201.083992,9.85599704 202.668,10.448 C204.252008,11.040003 205.611994,11.839995 206.748,12.848 C207.884006,13.856005 208.763997,15.0319933 209.388,16.376 C210.012003,17.7200067 210.356,19.1599923 210.42,20.696 Z M192.948,24.152 C193.044,25.3680061 193.483996,26.3199966 194.268,27.008 C195.052004,27.6960034 196.083994,28.04 197.364,28.04 C198.644006,28.04 199.675996,27.6960034 200.46,27.008 C201.244004,26.3199966 201.684,25.3680061 201.78,24.152 C201.844,23.6719976 201.876,23.128003 201.876,22.52 C201.876,21.911997 201.844,21.3680024 201.78,20.888 C201.684,19.6719939 201.244004,18.7200034 200.46,18.032 C199.675996,17.3439966 198.644006,17 197.364,17 C196.083994,17 195.052004,17.3439966 194.268,18.032 C193.483996,18.7200034 193.044,19.6719939 192.948,20.888 C192.884,21.3680024 192.852,21.911997 192.852,22.52 C192.852,23.128003 192.884,23.6719976 192.948,24.152 Z M259.836,20.84 C259.772,21.3200024 259.74,21.8799968 259.74,22.52 C259.74,23.1600032 259.772,23.7199976 259.836,24.2 C259.932,25.3520058 260.363996,26.2799965 261.132,26.984 C261.900004,27.6880035 262.923994,28.04 264.204,28.04 C265.260005,28.04 266.067997,27.8880015 266.628,27.584 C267.188003,27.2799985 267.643998,26.8560027 267.996,26.312 C268.156001,26.0559987 268.339999,25.832001 268.548,25.64 C268.756001,25.447999 269.035998,25.352 269.388,25.352 L275.676,25.352 C276.028002,25.352 276.339999,25.4799987 276.612,25.736 C276.884001,25.9920013 277.004,26.2959982 276.972,26.648 C276.94,27.1600026 276.732002,27.911995 276.348,28.904 C275.963998,29.896005 275.292005,30.8799951 274.332,31.856 C273.371995,32.8320049 272.076008,33.6799964 270.444,34.4 C268.811992,35.1200036 266.732013,35.48 264.204,35.48 C262.411991,35.48 260.740008,35.2240026 259.188,34.712 C257.635992,34.1999974 256.276006,33.4640048 255.108,32.504 C253.939994,31.5439952 253.012003,30.3840068 252.324,29.024 C251.635997,27.6639932 251.26,26.1360085 251.196,24.44 C251.164,23.9599976 251.148,23.320004 251.148,22.52 C251.148,21.719996 251.164,21.0800024 251.196,20.6 C251.26,18.9039915 251.635997,17.3760068 252.324,16.016 C253.012003,14.6559932 253.939994,13.4960048 255.108,12.536 C256.276006,11.5759952 257.635992,10.8400026 259.188,10.328 C260.740008,9.81599744 262.411991,9.56 264.204,9.56 C266.732013,9.56 268.811992,9.9199964 270.444,10.64 C272.076008,11.3600036 273.371995,12.2079951 274.332,13.184 C275.292005,14.1600049 275.963998,15.143995 276.348,16.136 C276.732002,17.128005 276.94,17.8799974 276.972,18.392 C277.004,18.7440018 276.884001,19.0479987 276.612,19.304 C276.339999,19.5600013 276.028002,19.688 275.676,19.688 L269.388,19.688 C269.035998,19.688 268.756001,19.592001 268.548,19.4 C268.339999,19.207999 268.156001,18.9840013 267.996,18.728 C267.643998,18.1839973 267.188003,17.7600015 266.628,17.456 C266.067997,17.1519985 265.260005,17 264.204,17 C262.923994,17 261.900004,17.3519965 261.132,18.056 C260.363996,18.7600035 259.932,19.6879942 259.836,20.84 Z M306.684,33.704 C306.684,34.0560018 306.556001,34.3599987 306.3,34.616 C306.043999,34.8720013 305.740002,35 305.388,35 L299.34,35 C298.987998,35 298.684001,34.8720013 298.428,34.616 C298.171999,34.3599987 298.044,34.0560018 298.044,33.704 L298.044,21.56 C298.044,20.1839931 297.708003,19.0800042 297.036,18.248 C296.363997,17.4159958 295.308007,17 293.868,17 C292.427993,17 291.380003,17.4159958 290.724,18.248 C290.067997,19.0800042 289.74,20.1839931 289.74,21.56 L289.74,33.704 C289.74,34.0560018 289.612001,34.3599987 289.356,34.616 C289.099999,34.8720013 288.796002,35 288.444,35 L282.396,35 C282.043998,35 281.740001,34.8720013 281.484,34.616 C281.227999,34.3599987 281.1,34.0560018 281.1,33.704 L281.1,2.216 C281.1,1.86399824 281.227999,1.56000128 281.484,1.304 C281.740001,1.04799872 282.043998,0.92 282.396,0.92 L288.444,0.92 C288.796002,0.92 289.099999,1.04799872 289.356,1.304 C289.612001,1.56000128 289.74,1.86399824 289.74,2.216 L289.74,12.44 C290.284003,11.7679966 291.131994,11.1200031 292.284,10.496 C293.436006,9.87199688 294.763992,9.56 296.268,9.56 C297.804008,9.56 299.211994,9.77599784 300.492,10.208 C301.772006,10.6400022 302.867995,11.3039955 303.78,12.2 C304.692005,13.0960045 305.403997,14.2319931 305.916,15.608 C306.428003,16.9840069 306.684,18.6159906 306.684,20.504 L306.684,33.704 Z" id="React-Coach" fill="#4C403F"></path>
    </g>
</svg>